<svg t="1627782976496" class="icon" viewBox="0 0 1048 1024" version="1.1" xmlns="http://www.w3.org/2000/svg" p-id="2011"
    width="48" height="48">
    <path
        d="M1048.480474 901.880505c0 5.118781-0.316877 10.237562-0.609378 15.356343H923.435961s-24.911402-218.401333-207.35939-297.864318a373.987908 373.987908 0 0 0 132.673934-291.526779 402.189955 402.189955 0 0 0-9.579433-87.019281c84.338015 15.600095 148.980909 102.619376 148.980909 208.16377 0 97.744347-55.575339 179.644846-130.845798 203.532493a9.238181 9.238181 0 0 1-0.146251 1.218757c108.615663 20.718876 191.320543 123.825756 191.320542 248.139015zM839.171072 240.82647z m-247.895263 387.077362c159.754725 34.125208 280.314211 187.932397 280.314211 372.939777 0 7.800048-0.292502 15.356344-0.706879 23.156391H177.70266c-0.414378-7.800048-0.706879-15.356344-0.70688-23.156391 0-188.4199 125.239514-344.664604 289.552393-374.889788-114.295073-35.100214-198.949964-159.413473-198.949965-307.858129 0-175.501071 118.292597-317.85194 264.250988-317.851941s264.226613 142.350869 264.226613 317.851941c0 151.125922-87.531159 277.145442-204.8 309.80814z m-259.912211-6.58129c-197.609331 127.238277-193.928684 295.914306-193.928684 295.914306H0.714704C0.422203 912.361819 0.105326 907.243037 0.105326 901.880505a245.165246 245.165246 0 0 1 190.638038-246.189003c0-0.487503 0-0.731254-0.146251-1.218757-75.002333-23.643894-130.407046-105.056891-130.407046-202.069984 0-104.81314 64.423518-191.344918 148.469032-206.945013a398.89931 398.89931 0 0 0-9.530684 86.531778 370.648512 370.648512 0 0 0 132.235183 289.333016zM210.292234 237.901452s5.67941 6.337539-1.60876 7.556296c1.048131-4.387527 2.071888-9.262557 1.60876-7.556296z"
        p-id="2012"></path>
</svg>
