<svg t="1627783120524" class="icon" viewBox="0 0 1024 1024" version="1.1" xmlns="http://www.w3.org/2000/svg" p-id="5133"
    width="48" height="48">
    <path
        d="M751.4 755.13866667c55.44 0 100.8 44.856 100.8 100.8s-45.36 100.8-100.8 100.8-100.8-45.36-100.8-100.8c0-55.944 44.856-100.8 100.8-100.8z m-435.456 0c55.44 0 100.8 44.856 100.8 100.8 0 55.44-45.36 100.8-100.8 100.8s-100.8-45.36-100.8-100.8c0-55.944 44.856-100.8 100.8-100.8zM190.448 192.67466667h742.392c26.712 0 52.416 13.104 68.04 35.28 15.624 21.672 19.152 50.4 10.584 75.6l-115.92 325.584c-16.632 46.368-60.48 77.112-109.368 77.112H333.584c-55.44 0-103.32-39.312-113.904-93.744L142.568 224.93066667l-25.2-114.408H34.712C20.096 110.52266667 8 98.42666667 8 83.81066667s12.096-26.712 26.712-26.712h104.832c1.008 0 1.512 0.504 2.52 0.504 2.016 0 3.528 0.504 5.544 1.008 1.512 0.504 3.024 1.008 4.536 2.016 1.512 1.008 3.024 1.512 4.032 3.024 1.512 1.008 2.52 2.016 3.528 3.528 1.008 1.512 2.016 2.52 2.52 4.032 1.008 1.512 1.512 3.024 2.016 5.04 0 0.504 0.504 1.008 1.008 2.016l25.2 114.408z m560.952 710.136c26.208 0 47.376-21.168 47.376-47.376s-21.168-47.376-47.376-47.376-47.376 21.168-47.376 47.376 21.168 47.376 47.376 47.376z m-435.456 0c26.208 0 47.376-21.168 47.376-47.376s-21.168-47.376-47.376-47.376-47.376 21.168-47.376 47.376 21.168 47.376 47.376 47.376zM201.536 246.09866667l70.56 356.328c6.048 29.232 31.752 50.904 61.488 50.904h452.592c26.712 0 50.4-16.632 59.472-41.832l115.92-325.584c3.528-9.072 2.016-19.152-3.528-27.216-5.544-8.064-14.616-12.6-24.192-12.6H201.536z"
        p-id="5134"></path>
</svg>
