<svg t="1627783184849" class="icon" viewBox="0 0 1024 1024" version="1.1" xmlns="http://www.w3.org/2000/svg" p-id="5954"
    width="48" height="48">
    <path
        d="M512.003 14.63C237.405 14.63 14.63 238.01 14.63 512.003s222.77 497.372 497.373 497.372 497.372-223.379 497.372-497.372S786.6 14.63 512.003 14.63z m44.675 757.67a63.538 63.538 0 0 1-44.675 17.877h-1.198c-17.272 0-33.348-6.56-45.269-18.47-11.91-11.921-18.454-27.997-18.454-45.27 0-18.47 6.559-33.358 19.058-45.269 11.317-11.92 26.8-17.876 45.27-17.876h15.481v1.801c11.91 2.369 22.635 7.73 30.376 16.075 11.91 11.911 18.47 26.8 18.47 45.27 0 17.876-6.56 33.348-19.059 45.862zM650.19 497.11c-4.165 5.362-14.894 16.075-58.372 54.207a96.442 96.442 0 0 0-24.42 30.376c-5.955 11.317-8.923 23.228-8.923 37.528v26.8h-102.47v-26.8c0-28.59 4.759-51.828 14.894-70.887 10.136-20.245 35.15-48.241 78.628-85.78l10.723-11.895c10.714-13.118 15.482-26.21 15.482-39.314 0-19.058-5.362-33.952-15.482-44.675-10.135-10.12-25.617-15.482-45.873-15.482-25.013 0-42.88 7.152-53.01 22.03-10.12 13.712-15.482 33.359-15.482 59.57v15.482H344.617v-15.482c0-52.422 15.498-95.297 46.467-126.281 30.969-31.573 74.462-47.648 128.066-47.648 47.055 0 85.78 13.103 114.964 39.313 30.375 26.211 45.269 62.542 44.665 107.811 0 35.733-9.516 66.702-28.59 91.127z"
        p-id="5955"></path>
</svg>
