<svg t="1621402737873" class="icon" viewBox="0 0 1024 1024" version="1.1" xmlns="http://www.w3.org/2000/svg" p-id="1450"
    width="128" height="128">
    <path
        d="M988.685308 391.419659L903.754158 383.110636a411.868811 411.868811 0 0 0-22.190564-54.730091l53.635489-63.835188a37.017443 37.017443 0 0 0 0-49.754628l-121.451047-122.844176a38.311064 38.311064 0 0 0-50.451193 0L699.461655 146.228852a406.744084 406.744084 0 0 0-54.282299-22.986638L632.790453 35.773578A37.664253 37.664253 0 0 0 596.021783 0H428.050159a38.311064 38.311064 0 0 0-37.664254 35.773578L384.017313 120.654973a446.945824 446.945824 0 0 0-54.730091 22.339828L265.253016 89.55833a37.017443 37.017443 0 0 0-49.754628 0L91.559609 210.71085a38.311064 38.311064 0 0 0 0 50.451193l54.2823 63.835187A406.744084 406.744084 0 0 0 119.670974 383.110636L34.739824 391.419659a37.664253 37.664253 0 0 0-33.833147 37.017443v167.92187a38.311064 38.311064 0 0 0 33.833147 37.664253l84.93115 8.955833a403.559788 403.559788 0 0 0 22.339828 54.2823L88.375313 766.221272a37.017443 37.017443 0 0 0 0 49.754628l118.764297 118.764297a38.311064 38.311064 0 0 0 50.451193 3.184296l63.835188-54.282299a406.744084 406.744084 0 0 0 54.282299 22.986638l14.926389 82.99072a37.664253 37.664253 0 0 0 37.017443 33.833147h167.92187a38.311064 38.311064 0 0 0 37.664253-33.833147l6.368592-84.93115a446.945824 446.945824 0 0 0 54.730091-22.339828l63.835188 53.635489a37.017443 37.017443 0 0 0 49.754628 0l118.764297-118.764297a38.311064 38.311064 0 0 0 3.184296-50.451193l-54.282299-63.835188a383.110636 383.110636 0 0 0 22.986638-54.730091l84.93115-8.955833a37.664253 37.664253 0 0 0 39.007629-42.191924V429.083912a38.311064 38.311064 0 0 0-33.833147-37.664253z m-476.947865 268.177445a146.875662 146.875662 0 1 1 104.484719-43.684563 146.875662 146.875662 0 0 1-104.484719 43.684563z"
        p-id="1451"></path>
</svg>
